<svg xmlns="http://www.w3.org/2000/svg" viewBox="0 0 512 512"><path fill="#fff" d="M57.5 20.8 324 .5s33.5-2.7 53.1 8.8L474.8 77s28.9 14.2 28.9 46.1l.1 310.3s1.8 58-59 60.5L152 511.3s-42 5.1-58.7-19.1l-69.1-89.1S6.9 381.3 6.9 349.9v-271s5.6-53 50.4-57.5l.2-.6Z"/><path d="M37.6 76.3S37.5 54.8 64 49l263.3-18s27.3-3.5 40.9 8.5l98 69.4s6.3 3.7 6.3 12.3v310s6.6 29.6-28.5 32.2l-295.3 18.3s-24.5 3.5-37-14.3L47.5 384s-9.3-9.3-10-36.6v-271Z"/><path fill="#fff" d="M128.1 169.5s-2.3-19.8 17.3-19.8l281.3-17.1s16-1.9 16.3 14.4v267s2.4 15.7-16.3 17.6l-281.3 16s-17.3 1.3-17.3-20v-258Z"/><path d="m251.4 173.1 92.5-5.8-34 92.7 46.3-2.5-99.5 153.2 16.5-108.1-38.3 2 16.5-131.5Z"/></svg>