<svg xmlns="http://www.w3.org/2000/svg" width="128" height="128" fill="none"><g clip-path="url(#a)"><rect width="104" height="104" x="12" y="12" fill="#241F31" rx="8"/><path fill="url(#b)" d="M12 100h8v16h-8z"/><path fill="url(#c)" d="M116 116h8v16h-8z" transform="rotate(-180 116 116)"/></g><rect width="104" height="96" x="12" y="12" fill="#3D3846" rx="8"/><path fill="#fff" d="M24 24h80v72H24z"/><path fill="#241F31" d="M59 90V69h-8l-2-32v-4h28v4l-5 19 11-4v4L59 90Z"/><path fill="#3D3846" d="M59 86V65h-8l-2-32h28l-5 19h11L59 86Z"/><defs><linearGradient id="b" x1="20" x2="12" y1="108" y2="108" gradientUnits="userSpaceOnUse"><stop stop-color="#241F31"/><stop offset=".5" stop-color="#3D3846"/><stop offset="1"/></linearGradient><linearGradient id="c" x1="124" x2="116" y1="124" y2="124" gradientUnits="userSpaceOnUse"><stop stop-color="#241F31"/><stop offset=".5" stop-color="#3D3846"/><stop offset="1"/></linearGradient><clipPath id="a"><rect width="104" height="104" x="12" y="12" fill="#fff" rx="8"/></clipPath></defs></svg>
