<svg viewBox="0 0 20 20" xmlns="http://www.w3.org/2000/svg" width="20" height="20" fill="none">
	<path fill-rule="evenodd"
		fill="#37352f"
		d="M4.02 5.406c0-.533.366-.802.613-.802h10.734c.247 0 .612.27.612.802v.243L10 9.835 4.02 5.649v-.243zm0 2.023v7.165c0 .533.366.802.613.802h10.734c.247 0 .612-.27.612-.802V7.429l-5.56 3.893a.73.73 0 01-.837 0L4.02 7.429zm.613-4.283c-1.228 0-2.07 1.109-2.07 2.26v9.188c0 1.151.842 2.26 2.07 2.26h10.734c1.228 0 2.07-1.109 2.07-2.26V5.406c0-1.151-.842-2.26-2.07-2.26H4.633z"
		clip-rule="evenodd">
	</path>
</svg>