<svg height="25" fill="none" xmlns="http://www.w3.org/2000/svg" viewBox="0 0 25 25" width="25"><g fill="#9b9b9b"><path d="M14.3982 5H4.48027C3.11021 5 2 6.11021 2 7.48026V17.3997C2 18.7698 3.11021 19.88 4.48027 19.88H14.3997C15.7697 19.88 16.88 18.7698 16.88 17.3997V7.48026C16.88 6.11021 15.7697 5 14.3997 5H14.3982ZM14.0076 18.3414H4.87238C4.13381 18.3414 3.5354 17.743 3.5354 17.0044V9.08023H15.3446V17.006C15.3446 17.7446 14.7461 18.343 14.0076 18.343V18.3414Z"></path><g class="NotionCalendarIcon_dates__QiFn_"><g class="NotionCalendarIcon_current__Iwe8x"><path d="M6.56372 16.0291V11.5282C5.59787 11.7407 5.38538 11.3157 5.49163 10.8907C6.07114 10.7941 7.57787 10.4464 8.14772 10.2822V16.0677L9.2005 16.2802C9.2005 16.6569 8.97836 16.879 8.58236 16.879C8.25397 16.879 7.49094 16.8597 7.12392 16.8597C6.55406 16.8597 5.51094 16.879 5.51094 16.879C5.48197 16.8017 5.47231 16.7245 5.47231 16.6569C5.47231 16.4733 5.54958 16.2899 5.8007 16.2222L6.56372 16.0291ZM6.56372 16.0291V11.5282C5.59787 11.7407 5.38538 11.3157 5.49163 10.8907C6.07114 10.7941 7.57787 10.4464 8.14772 10.2822V16.0677L9.2005 16.2802C9.2005 16.6569 8.97836 16.879 8.58236 16.879C8.25397 16.879 7.49094 16.8597 7.12392 16.8597C6.55406 16.8597 5.51094 16.879 5.51094 16.879C5.48197 16.8017 5.47231 16.7245 5.47231 16.6569C5.47231 16.4733 5.54958 16.2899 5.8007 16.2222L6.56372 16.0291Z"></path><path d="M10.8801 11.5282V16.0291L10.1171 16.2222C9.86594 16.2899 9.78871 16.4733 9.78871 16.6569C9.78871 16.7245 9.79839 16.8017 9.82733 16.879C9.82733 16.879 10.8705 16.8597 11.4403 16.8597C11.8073 16.8597 12.5704 16.879 12.8988 16.879C13.2947 16.879 13.5169 16.6569 13.5169 16.2802L12.4641 16.0677V10.2822C11.8942 10.4464 10.3876 10.7941 9.80806 10.8907C9.70174 11.3157 9.9143 11.7407 10.8801 11.5282Z"></path></g></g></g></svg>