<svg width="150" height="50" viewBox="0 0 150 50" fill="none" xmlns="http://www.w3.org/2000/svg">
<rect x="0.5" y="0.5" width="149" height="49" rx="4.5" fill="black" stroke="#444444"/>
<path d="M28.7097 27.1311V15.1349L36.6462 18.8243L28.7097 27.1311ZM13.5512 42.9885L23.2794 23.8886L27.5445 28.3342L13.5512 43V42.9885ZM8 7.01146L28.0281 14.5735V27.8415L8.01099 7L8 7.01146Z" fill="#82BEA0"/>
<path d="M40.7023 14.585H29.1603L44 21.4825L40.7023 14.585Z" fill="#FA6441"/>
<path d="M54.38 38.28C53.1533 38.28 52.16 38.16 51.4 37.92C50.6533 37.6667 50.1 37.4333 49.74 37.22L50.62 34.74C51.0333 34.9667 51.54 35.1733 52.14 35.36C52.7533 35.5333 53.5 35.62 54.38 35.62C55.26 35.62 55.8533 35.4867 56.16 35.22C56.4667 34.94 56.62 34.5933 56.62 34.18C56.62 33.8733 56.5267 33.6067 56.34 33.38C56.1533 33.1533 55.8533 32.94 55.44 32.74C55.0267 32.5267 54.4733 32.3067 53.78 32.08C53.18 31.8667 52.5867 31.6067 52 31.3C51.4133 30.98 50.9267 30.56 50.54 30.04C50.1667 29.52 49.98 28.8333 49.98 27.98C49.98 27.1267 50.1867 26.3933 50.6 25.78C51.0267 25.1533 51.62 24.6733 52.38 24.34C53.14 23.9933 54.04 23.82 55.08 23.82C56.0133 23.82 56.82 23.92 57.5 24.12C58.18 24.32 58.74 24.54 59.18 24.78L58.28 27.24C57.8933 27.04 57.46 26.8667 56.98 26.72C56.5133 26.56 55.9467 26.48 55.28 26.48C54.5333 26.48 53.9933 26.5867 53.66 26.8C53.34 27 53.18 27.3133 53.18 27.74C53.18 28.06 53.2867 28.3267 53.5 28.54C53.7133 28.7533 54 28.94 54.36 29.1C54.72 29.26 55.1267 29.42 55.58 29.58C56.54 29.9267 57.3333 30.2867 57.96 30.66C58.5867 31.0333 59.0533 31.4933 59.36 32.04C59.68 32.5867 59.84 33.3067 59.84 34.2C59.84 35.0533 59.64 35.7867 59.24 36.4C58.84 37.0133 58.2333 37.48 57.42 37.8C56.62 38.12 55.6067 38.28 54.38 38.28ZM61.0406 38V27.84C61.5473 27.6933 62.2006 27.56 63.0006 27.44C63.8006 27.3067 64.6406 27.24 65.5206 27.24C66.7206 27.24 67.654 27.4467 68.3206 27.86C68.9873 28.26 69.454 28.82 69.7206 29.54C69.9873 30.26 70.1206 31.1 70.1206 32.06V38H67.1406V32.42C67.1406 31.78 67.0873 31.2667 66.9806 30.88C66.874 30.4933 66.6873 30.2133 66.4206 30.04C66.1673 29.8667 65.8073 29.78 65.3406 29.78C65.1273 29.78 64.9006 29.7933 64.6606 29.82C64.4206 29.8333 64.2073 29.8533 64.0206 29.88V38H61.0406ZM75.638 38.22C74.7313 38.22 73.938 38.1133 73.258 37.9C72.578 37.6733 72.0513 37.3067 71.678 36.8C71.3046 36.2933 71.118 35.6133 71.118 34.76C71.118 33.9333 71.3246 33.28 71.738 32.8C72.1646 32.32 72.718 31.98 73.398 31.78C74.078 31.5667 74.798 31.46 75.558 31.46C75.9446 31.46 76.2846 31.48 76.578 31.52C76.8846 31.5467 77.1313 31.5867 77.318 31.64V31.36C77.318 31.0133 77.2513 30.72 77.118 30.48C76.9846 30.2267 76.7646 30.0333 76.458 29.9C76.1646 29.7533 75.7646 29.68 75.258 29.68C74.7513 29.68 74.2513 29.72 73.758 29.8C73.2646 29.8667 72.838 29.9667 72.478 30.1L72.098 27.7C72.4446 27.5933 72.938 27.4867 73.578 27.38C74.2313 27.26 74.9046 27.2 75.598 27.2C76.7713 27.2 77.6913 27.3733 78.358 27.72C79.0246 28.0667 79.4913 28.5667 79.758 29.22C80.038 29.86 80.178 30.62 80.178 31.5V37.7C79.7513 37.7933 79.158 37.9 78.398 38.02C77.638 38.1533 76.718 38.22 75.638 38.22ZM75.838 35.92C76.1313 35.92 76.4113 35.9133 76.678 35.9C76.9446 35.8867 77.158 35.8667 77.318 35.84V33.58C77.198 33.5533 77.018 33.5267 76.778 33.5C76.538 33.4733 76.318 33.46 76.118 33.46C75.7446 33.46 75.4046 33.4933 75.098 33.56C74.7913 33.6267 74.5446 33.7467 74.358 33.92C74.1713 34.0933 74.078 34.3467 74.078 34.68C74.078 35.1467 74.2313 35.4733 74.538 35.66C74.858 35.8333 75.2913 35.92 75.838 35.92ZM81.8727 41.7V27.84C82.2327 27.7333 82.6527 27.6333 83.1327 27.54C83.626 27.4467 84.1327 27.3733 84.6527 27.32C85.186 27.2667 85.6927 27.24 86.1727 27.24C87.3327 27.24 88.3193 27.4667 89.1327 27.92C89.946 28.36 90.566 28.9933 90.9927 29.82C91.4327 30.6467 91.6527 31.62 91.6527 32.74C91.6527 33.82 91.4727 34.7733 91.1127 35.6C90.766 36.4133 90.2527 37.0533 89.5727 37.52C88.8927 37.9733 88.0527 38.2 87.0527 38.2C86.6393 38.2 86.2527 38.16 85.8927 38.08C85.5327 38 85.186 37.8867 84.8527 37.74V41.7H81.8727ZM86.4927 35.68C86.8527 35.68 87.1593 35.62 87.4127 35.5C87.6793 35.38 87.8993 35.2 88.0727 34.96C88.2593 34.72 88.3927 34.4267 88.4727 34.08C88.566 33.72 88.6127 33.3 88.6127 32.82C88.6127 32.2067 88.5193 31.6733 88.3327 31.22C88.146 30.7667 87.8727 30.4133 87.5127 30.16C87.1527 29.9067 86.6993 29.78 86.1527 29.78C85.886 29.78 85.6393 29.7933 85.4127 29.82C85.186 29.8333 84.9993 29.8533 84.8527 29.88V35.26C85.0393 35.38 85.2793 35.48 85.5727 35.56C85.8793 35.64 86.186 35.68 86.4927 35.68ZM99.9667 38.28C98.7401 38.28 97.7467 38.16 96.9867 37.92C96.2401 37.6667 95.6867 37.4333 95.3267 37.22L96.2067 34.74C96.6201 34.9667 97.1267 35.1733 97.7267 35.36C98.3401 35.5333 99.0867 35.62 99.9667 35.62C100.847 35.62 101.44 35.4867 101.747 35.22C102.053 34.94 102.207 34.5933 102.207 34.18C102.207 33.8733 102.113 33.6067 101.927 33.38C101.74 33.1533 101.44 32.94 101.027 32.74C100.613 32.5267 100.06 32.3067 99.3667 32.08C98.7667 31.8667 98.1734 31.6067 97.5867 31.3C97.0001 30.98 96.5134 30.56 96.1267 30.04C95.7534 29.52 95.5667 28.8333 95.5667 27.98C95.5667 27.1267 95.7734 26.3933 96.1867 25.78C96.6134 25.1533 97.2067 24.6733 97.9667 24.34C98.7267 23.9933 99.6267 23.82 100.667 23.82C101.6 23.82 102.407 23.92 103.087 24.12C103.767 24.32 104.327 24.54 104.767 24.78L103.867 27.24C103.48 27.04 103.047 26.8667 102.567 26.72C102.1 26.56 101.533 26.48 100.867 26.48C100.12 26.48 99.5801 26.5867 99.2467 26.8C98.9267 27 98.7667 27.3133 98.7667 27.74C98.7667 28.06 98.8734 28.3267 99.0867 28.54C99.3001 28.7533 99.5867 28.94 99.9467 29.1C100.307 29.26 100.713 29.42 101.167 29.58C102.127 29.9267 102.92 30.2867 103.547 30.66C104.173 31.0333 104.64 31.4933 104.947 32.04C105.267 32.5867 105.427 33.3067 105.427 34.2C105.427 35.0533 105.227 35.7867 104.827 36.4C104.427 37.0133 103.82 37.48 103.007 37.8C102.207 38.12 101.193 38.28 99.9667 38.28ZM110.687 38.24C109.607 38.24 108.761 38.0533 108.147 37.68C107.547 37.2933 107.127 36.76 106.887 36.08C106.647 35.4 106.527 34.6067 106.527 33.7V24.86L109.507 24.38V27.48H113.087V29.96H109.507V33.66C109.507 34.0733 109.554 34.44 109.647 34.76C109.741 35.0667 109.907 35.3067 110.147 35.48C110.387 35.64 110.727 35.72 111.167 35.72C111.487 35.72 111.814 35.6933 112.147 35.64C112.494 35.5733 112.807 35.4867 113.087 35.38L113.507 37.7C113.147 37.8467 112.747 37.9733 112.307 38.08C111.867 38.1867 111.327 38.24 110.687 38.24ZM118.803 38.28C117.777 38.28 116.87 38.0467 116.083 37.58C115.31 37.1133 114.703 36.4667 114.263 35.64C113.837 34.8 113.623 33.8267 113.623 32.72C113.623 31.6133 113.843 30.6467 114.283 29.82C114.737 28.9933 115.357 28.3533 116.143 27.9C116.93 27.4333 117.817 27.2 118.803 27.2C119.817 27.2 120.71 27.4333 121.483 27.9C122.257 28.3533 122.863 28.9933 123.303 29.82C123.743 30.6467 123.963 31.6133 123.963 32.72C123.963 33.8267 123.75 34.8 123.323 35.64C122.897 36.4667 122.297 37.1133 121.523 37.58C120.763 38.0467 119.857 38.28 118.803 38.28ZM118.803 35.72C119.257 35.72 119.637 35.6 119.943 35.36C120.263 35.1067 120.503 34.76 120.663 34.32C120.837 33.8667 120.923 33.3333 120.923 32.72C120.923 32.1067 120.837 31.58 120.663 31.14C120.503 30.7 120.263 30.36 119.943 30.12C119.637 29.88 119.257 29.76 118.803 29.76C118.35 29.76 117.963 29.88 117.643 30.12C117.323 30.36 117.077 30.7 116.903 31.14C116.743 31.58 116.663 32.1067 116.663 32.72C116.663 33.3333 116.743 33.8667 116.903 34.32C117.077 34.76 117.323 35.1067 117.643 35.36C117.963 35.6 118.35 35.72 118.803 35.72ZM125.272 38V28.04C125.805 27.8533 126.432 27.68 127.152 27.52C127.885 27.3467 128.699 27.26 129.592 27.26C129.805 27.26 130.065 27.28 130.372 27.32C130.692 27.3467 131.005 27.3867 131.312 27.44C131.632 27.4933 131.899 27.5667 132.112 27.66L131.612 30.12C131.345 30.0533 131.032 29.9867 130.672 29.92C130.312 29.84 129.925 29.8 129.512 29.8C129.325 29.8 129.099 29.82 128.832 29.86C128.579 29.8867 128.385 29.92 128.252 29.96V38H125.272ZM137.574 38.28C136.307 38.28 135.261 38.04 134.434 37.56C133.621 37.08 133.014 36.4267 132.614 35.6C132.214 34.7733 132.014 33.8467 132.014 32.82C132.014 31.58 132.254 30.5467 132.734 29.72C133.227 28.88 133.854 28.2533 134.614 27.84C135.387 27.4133 136.201 27.2 137.054 27.2C138.054 27.2 138.914 27.4067 139.634 27.82C140.354 28.22 140.907 28.82 141.294 29.62C141.694 30.42 141.894 31.4133 141.894 32.6C141.894 32.7733 141.887 32.9667 141.874 33.18C141.861 33.38 141.847 33.56 141.834 33.72H135.074C135.141 34.3333 135.427 34.82 135.934 35.18C136.441 35.54 137.121 35.72 137.974 35.72C138.521 35.72 139.054 35.6733 139.574 35.58C140.107 35.4733 140.541 35.3467 140.874 35.2L141.274 37.62C140.954 37.78 140.441 37.9267 139.734 38.06C139.041 38.2067 138.321 38.28 137.574 38.28ZM135.074 31.68H139.014C139.001 31.3467 138.927 31.0267 138.794 30.72C138.661 30.4133 138.454 30.16 138.174 29.96C137.907 29.76 137.547 29.66 137.094 29.66C136.641 29.66 136.274 29.76 135.994 29.96C135.727 30.1467 135.521 30.3933 135.374 30.7C135.227 31.0067 135.127 31.3333 135.074 31.68Z" fill="white"/>
<path d="M54.8523 12C54.7741 11.7609 54.6712 11.5466 54.5433 11.3572C54.4179 11.1655 54.2675 11.0021 54.0923 10.8672C53.9195 10.7322 53.723 10.6293 53.5028 10.5582C53.2827 10.4872 53.0412 10.4517 52.7784 10.4517C52.3475 10.4517 51.9557 10.563 51.603 10.7855C51.2502 11.008 50.9697 11.3359 50.7614 11.7692C50.553 12.2024 50.4489 12.7339 50.4489 13.3636C50.4489 13.9934 50.5542 14.5249 50.7649 14.9581C50.9756 15.3913 51.2609 15.7192 51.6207 15.9418C51.9806 16.1643 52.3854 16.2756 52.8352 16.2756C53.2519 16.2756 53.6188 16.1868 53.9361 16.0092C54.2557 15.8293 54.5043 15.576 54.6818 15.2493C54.8617 14.9202 54.9517 14.5331 54.9517 14.0881L55.2216 14.1449H53.0341V13.3636H55.804V14.1449C55.804 14.7438 55.6761 15.2647 55.4205 15.7074C55.1671 16.1501 54.8168 16.4934 54.3693 16.7372C53.9242 16.9787 53.4129 17.0994 52.8352 17.0994C52.1913 17.0994 51.6255 16.9479 51.1378 16.6449C50.6525 16.3419 50.2737 15.911 50.0014 15.3523C49.7315 14.7936 49.5966 14.1307 49.5966 13.3636C49.5966 12.7884 49.6735 12.2711 49.8274 11.8118C49.9837 11.3501 50.2038 10.9571 50.4879 10.6328C50.772 10.3085 51.1082 10.0599 51.4964 9.88707C51.8847 9.71425 52.312 9.62784 52.7784 9.62784C53.1619 9.62784 53.5194 9.68584 53.8509 9.80185C54.1847 9.91548 54.4818 10.0777 54.7422 10.2884C55.005 10.4967 55.224 10.7464 55.3991 11.0376C55.5743 11.3265 55.6951 11.6473 55.7614 12H54.8523ZM59.4856 17.1136C58.96 17.1136 58.5067 16.9976 58.1255 16.7656C57.7467 16.5312 57.4544 16.2045 57.2484 15.7855C57.0448 15.3641 56.943 14.8741 56.943 14.3153C56.943 13.7566 57.0448 13.2642 57.2484 12.8381C57.4544 12.4096 57.7408 12.0758 58.1078 11.8366C58.4771 11.5952 58.908 11.4744 59.4004 11.4744C59.6845 11.4744 59.965 11.5218 60.242 11.6165C60.519 11.7112 60.7711 11.8651 60.9984 12.0781C61.2257 12.2888 61.4068 12.5682 61.5417 12.9162C61.6767 13.2642 61.7441 13.6927 61.7441 14.2017V14.5568H57.5396V13.8324H60.8919C60.8919 13.5246 60.8303 13.25 60.7072 13.0085C60.5865 12.767 60.4136 12.5765 60.1887 12.4368C59.9662 12.2971 59.7034 12.2273 59.4004 12.2273C59.0666 12.2273 58.7778 12.3101 58.5339 12.4759C58.2924 12.6392 58.1066 12.8523 57.9764 13.1151C57.8462 13.3778 57.7811 13.6596 57.7811 13.9602V14.4432C57.7811 14.8551 57.8521 15.2043 57.9941 15.4908C58.1386 15.7749 58.3386 15.9915 58.5943 16.1406C58.85 16.2874 59.1471 16.3608 59.4856 16.3608C59.7058 16.3608 59.9047 16.33 60.0822 16.2685C60.2621 16.2045 60.4172 16.1098 60.5474 15.9844C60.6776 15.8565 60.7782 15.6979 60.8493 15.5085L61.6589 15.7358C61.5737 16.0104 61.4305 16.2519 61.2292 16.4602C61.028 16.6662 60.7794 16.8272 60.4835 16.9432C60.1876 17.0568 59.8549 17.1136 59.4856 17.1136ZM65.3912 11.5455V12.2557H62.5645V11.5455H65.3912ZM63.3883 10.2386H64.2264V15.4375C64.2264 15.6742 64.2607 15.8518 64.3294 15.9702C64.4004 16.0862 64.4904 16.1643 64.5993 16.2045C64.7105 16.2424 64.8277 16.2614 64.9508 16.2614C65.0431 16.2614 65.1189 16.2566 65.1781 16.2472C65.2373 16.2353 65.2846 16.2259 65.3201 16.2188L65.4906 16.9716C65.4338 16.9929 65.3545 17.0142 65.2527 17.0355C65.1509 17.0592 65.0218 17.071 64.8656 17.071C64.6288 17.071 64.3968 17.0201 64.1696 16.9183C63.9447 16.8165 63.7576 16.6615 63.6085 16.4531C63.4617 16.2448 63.3883 15.982 63.3883 15.6648V10.2386ZM69.4643 17V11.5455H70.3024V17H69.4643ZM69.8904 10.6364C69.7271 10.6364 69.5862 10.5807 69.4679 10.4695C69.3519 10.3582 69.2939 10.2244 69.2939 10.0682C69.2939 9.91193 69.3519 9.77817 69.4679 9.6669C69.5862 9.55563 69.7271 9.5 69.8904 9.5C70.0538 9.5 70.1935 9.55563 70.3095 9.6669C70.4279 9.77817 70.487 9.91193 70.487 10.0682C70.487 10.2244 70.4279 10.3582 70.3095 10.4695C70.1935 10.5807 70.0538 10.6364 69.8904 10.6364ZM74.2095 11.5455V12.2557H71.3828V11.5455H74.2095ZM72.2067 10.2386H73.0447V15.4375C73.0447 15.6742 73.0791 15.8518 73.1477 15.9702C73.2188 16.0862 73.3087 16.1643 73.4176 16.2045C73.5289 16.2424 73.6461 16.2614 73.7692 16.2614C73.8615 16.2614 73.9373 16.2566 73.9964 16.2472C74.0556 16.2353 74.103 16.2259 74.1385 16.2188L74.3089 16.9716C74.2521 16.9929 74.1728 17.0142 74.071 17.0355C73.9692 17.0592 73.8402 17.071 73.6839 17.071C73.4472 17.071 73.2152 17.0201 72.9879 16.9183C72.763 16.8165 72.576 16.6615 72.4268 16.4531C72.2801 16.2448 72.2067 15.982 72.2067 15.6648V10.2386ZM80.7116 11.5455V12.2557H77.7713V11.5455H80.7116ZM78.652 17V10.7926C78.652 10.4801 78.7254 10.2197 78.8722 10.0114C79.0189 9.80303 79.2095 9.64678 79.4439 9.54261C79.6783 9.43845 79.9257 9.38636 80.1861 9.38636C80.392 9.38636 80.5601 9.40294 80.6903 9.43608C80.8205 9.46922 80.9176 9.5 80.9815 9.52841L80.7401 10.2528C80.6974 10.2386 80.6383 10.2209 80.5625 10.1996C80.4891 10.1783 80.392 10.1676 80.2713 10.1676C79.9943 10.1676 79.7943 10.2375 79.6712 10.3771C79.5504 10.5168 79.4901 10.7216 79.4901 10.9915V17H78.652ZM81.8862 17V11.5455H82.6958V12.3693H82.7527C82.8521 12.0994 83.032 11.8804 83.2924 11.7124C83.5529 11.5443 83.8464 11.4602 84.1731 11.4602C84.2347 11.4602 84.3116 11.4614 84.4039 11.4638C84.4963 11.4661 84.5661 11.4697 84.6135 11.4744V12.3267C84.585 12.3196 84.5199 12.3089 84.4181 12.2947C84.3187 12.2782 84.2134 12.2699 84.1021 12.2699C83.8369 12.2699 83.6002 12.3255 83.3919 12.4368C83.1859 12.5457 83.0225 12.6972 82.9018 12.8913C82.7834 13.0831 82.7243 13.3021 82.7243 13.5483V17H81.8862ZM87.6568 17.1136C87.1644 17.1136 86.7323 16.9964 86.3606 16.7621C85.9913 16.5277 85.7025 16.1998 85.4941 15.7784C85.2882 15.357 85.1852 14.8646 85.1852 14.3011C85.1852 13.733 85.2882 13.237 85.4941 12.8132C85.7025 12.3894 85.9913 12.0604 86.3606 11.826C86.7323 11.5916 87.1644 11.4744 87.6568 11.4744C88.1492 11.4744 88.5801 11.5916 88.9494 11.826C89.3211 12.0604 89.6099 12.3894 89.8159 12.8132C90.0242 13.237 90.1284 13.733 90.1284 14.3011C90.1284 14.8646 90.0242 15.357 89.8159 15.7784C89.6099 16.1998 89.3211 16.5277 88.9494 16.7621C88.5801 16.9964 88.1492 17.1136 87.6568 17.1136ZM87.6568 16.3608C88.0308 16.3608 88.3386 16.2649 88.5801 16.0732C88.8216 15.8814 89.0003 15.6293 89.1163 15.3168C89.2323 15.0043 89.2903 14.6657 89.2903 14.3011C89.2903 13.9366 89.2323 13.5968 89.1163 13.282C89.0003 12.9671 88.8216 12.7126 88.5801 12.5185C88.3386 12.3243 88.0308 12.2273 87.6568 12.2273C87.2827 12.2273 86.975 12.3243 86.7335 12.5185C86.492 12.7126 86.3133 12.9671 86.1973 13.282C86.0813 13.5968 86.0233 13.9366 86.0233 14.3011C86.0233 14.6657 86.0813 15.0043 86.1973 15.3168C86.3133 15.6293 86.492 15.8814 86.7335 16.0732C86.975 16.2649 87.2827 16.3608 87.6568 16.3608ZM91.4077 17V11.5455H92.2173V12.3977H92.2884C92.402 12.1065 92.5855 11.8804 92.8388 11.7195C93.0921 11.5561 93.3963 11.4744 93.7514 11.4744C94.1113 11.4744 94.4107 11.5561 94.6499 11.7195C94.8913 11.8804 95.0795 12.1065 95.2145 12.3977H95.2713C95.411 12.116 95.6205 11.8923 95.8999 11.7266C96.1792 11.5585 96.5142 11.4744 96.9048 11.4744C97.3925 11.4744 97.7914 11.6271 98.1016 11.9325C98.4117 12.2356 98.5668 12.7079 98.5668 13.3494V17H97.7287V13.3494C97.7287 12.947 97.6186 12.6593 97.3984 12.4865C97.1783 12.3137 96.919 12.2273 96.6207 12.2273C96.2372 12.2273 95.9401 12.3433 95.7294 12.5753C95.5187 12.8049 95.4134 13.0961 95.4134 13.4489V17H94.5611V13.2642C94.5611 12.9541 94.4605 12.7043 94.2592 12.5149C94.058 12.3232 93.7988 12.2273 93.4815 12.2273C93.2637 12.2273 93.0601 12.2853 92.8707 12.4013C92.6837 12.5173 92.5322 12.6783 92.4162 12.8842C92.3026 13.0878 92.2457 13.3234 92.2457 13.5909V17H91.4077ZM105.284 11.5455V12.2557H102.457V11.5455H105.284ZM103.281 10.2386H104.119V15.4375C104.119 15.6742 104.153 15.8518 104.222 15.9702C104.293 16.0862 104.383 16.1643 104.492 16.2045C104.603 16.2424 104.72 16.2614 104.843 16.2614C104.936 16.2614 105.011 16.2566 105.071 16.2472C105.13 16.2353 105.177 16.2259 105.213 16.2188L105.383 16.9716C105.326 16.9929 105.247 17.0142 105.145 17.0355C105.043 17.0592 104.914 17.071 104.758 17.071C104.521 17.071 104.289 17.0201 104.062 16.9183C103.837 16.8165 103.65 16.6615 103.501 16.4531C103.354 16.2448 103.281 15.982 103.281 15.6648V10.2386ZM107.5 13.7188V17H106.662V9.72727H107.5V12.3977H107.571C107.699 12.116 107.89 11.8923 108.146 11.7266C108.404 11.5585 108.747 11.4744 109.176 11.4744C109.547 11.4744 109.873 11.549 110.152 11.6982C110.432 11.8449 110.648 12.071 110.802 12.3764C110.958 12.6795 111.037 13.0653 111.037 13.5341V17H110.199V13.5909C110.199 13.1577 110.086 12.8227 109.861 12.5859C109.639 12.3468 109.33 12.2273 108.934 12.2273C108.66 12.2273 108.413 12.2853 108.196 12.4013C107.98 12.5173 107.81 12.6866 107.684 12.9091C107.561 13.1316 107.5 13.4015 107.5 13.7188ZM114.857 17.1136C114.331 17.1136 113.878 16.9976 113.497 16.7656C113.118 16.5312 112.825 16.2045 112.619 15.7855C112.416 15.3641 112.314 14.8741 112.314 14.3153C112.314 13.7566 112.416 13.2642 112.619 12.8381C112.825 12.4096 113.112 12.0758 113.479 11.8366C113.848 11.5952 114.279 11.4744 114.771 11.4744C115.056 11.4744 115.336 11.5218 115.613 11.6165C115.89 11.7112 116.142 11.8651 116.369 12.0781C116.597 12.2888 116.778 12.5682 116.913 12.9162C117.048 13.2642 117.115 13.6927 117.115 14.2017V14.5568H112.911V13.8324H116.263C116.263 13.5246 116.201 13.25 116.078 13.0085C115.958 12.767 115.785 12.5765 115.56 12.4368C115.337 12.2971 115.075 12.2273 114.771 12.2273C114.438 12.2273 114.149 12.3101 113.905 12.4759C113.664 12.6392 113.478 12.8523 113.347 13.1151C113.217 13.3778 113.152 13.6596 113.152 13.9602V14.4432C113.152 14.8551 113.223 15.2043 113.365 15.4908C113.51 15.7749 113.71 15.9915 113.965 16.1406C114.221 16.2874 114.518 16.3608 114.857 16.3608C115.077 16.3608 115.276 16.33 115.453 16.2685C115.633 16.2045 115.788 16.1098 115.919 15.9844C116.049 15.8565 116.149 15.6979 116.22 15.5085L117.03 15.7358C116.945 16.0104 116.802 16.2519 116.6 16.4602C116.399 16.6662 116.151 16.8272 115.855 16.9432C115.559 17.0568 115.226 17.1136 114.857 17.1136Z" fill="white"/>
</svg>
