<svg width="150" height="50" viewBox="0 0 150 50" fill="none" xmlns="http://www.w3.org/2000/svg">
<rect x="0.5" y="0.5" width="149" height="49" rx="4.5" fill="black" stroke="#444444"/>
<path d="M41.9397 7H10.0603C8.92243 7 8 7.92243 8 9.06031V40.9397C8 42.0776 8.92243 43 10.0603 43H41.9397C43.0776 43 44 42.0776 44 40.9397V9.06031C44 7.92243 43.0776 7 41.9397 7Z" fill="#555555"/>
<path d="M23.5236 9.39999C23.3062 9.42051 23.1043 9.52348 22.958 9.68847C22.8117 9.85347 22.7316 10.0684 22.7337 10.2907V14.9145H20.7297C20.5638 14.9164 20.4019 14.9665 20.2631 15.0589C20.1242 15.1514 20.0142 15.2823 19.946 15.4363C19.8778 15.5902 19.8543 15.7609 19.8781 15.928C19.902 16.0952 19.9722 16.2519 20.0806 16.3798L25.6961 22.2804C25.2324 22.2804 25.0573 22.4054 24.9038 22.5553C24.7504 22.7051 24.6754 22.8522 24.6222 22.9873C24.5247 23.2337 24.4769 23.4976 24.4814 23.7632V25.2854C24.2557 25.3773 24.0453 25.4665 23.8314 25.5731L22.7599 24.482C22.5764 24.2926 22.355 24.1456 22.1108 24.0509C21.9499 23.9848 21.7768 23.9553 21.6035 23.9645C21.3932 23.9737 21.1197 24.0546 20.9265 24.2522L19.5453 25.6586C19.3522 25.8553 19.2745 26.1339 19.2637 26.3481C19.2546 26.5248 19.2835 26.7015 19.3486 26.8656C19.4415 27.1143 19.5859 27.3397 19.7719 27.5265L20.8443 28.6177L20.5627 29.2795H19.0678C18.807 29.2749 18.5479 29.3237 18.3059 29.4229C18.175 29.4781 18.0306 29.5544 17.8817 29.7107C17.7327 29.8669 17.6 30.1372 17.6 30.4277V32.439C17.6 32.7304 17.7354 33.0015 17.8826 33.156C18.0297 33.3104 18.1741 33.3885 18.3068 33.4437C18.5488 33.5429 18.8079 33.5917 19.0687 33.5871H20.5636C20.6539 33.8169 20.7414 34.0311 20.8461 34.2489L19.7746 35.341C19.5886 35.5279 19.4443 35.7533 19.3513 36.0019C19.2862 36.1661 19.2573 36.3427 19.2664 36.5195C19.2754 36.7337 19.3549 37.0122 19.549 37.2089L20.9301 38.6153C21.1233 38.8121 21.3968 38.8911 21.6071 38.9031C21.7807 38.9124 21.9542 38.8829 22.1154 38.8167C22.3595 38.722 22.5809 38.5749 22.7644 38.3855L23.8368 37.2944L24.4868 37.5821V39.1044C24.4823 39.37 24.5302 39.6338 24.6276 39.8802C24.6818 40.0135 24.7567 40.1606 24.9101 40.3123C25.0636 40.4639 25.329 40.6 25.6143 40.6H27.5858C27.8719 40.6 28.1382 40.4621 28.2899 40.3132C28.4415 40.1643 28.5183 40.0163 28.5724 39.8811C28.6699 39.6347 28.7177 39.3709 28.7132 39.1053V37.583C28.9389 37.4911 29.1493 37.4019 29.3632 37.2962L30.4356 38.3883C30.6191 38.5777 30.8405 38.7247 31.0847 38.8194C31.2459 38.8856 31.4193 38.9151 31.5929 38.9058C31.8032 38.8966 32.0767 38.8157 32.2699 38.619L33.6511 37.2126C33.8442 37.0159 33.9219 36.7373 33.9336 36.5232C33.9426 36.3467 33.9136 36.1704 33.8488 36.0065C33.7558 35.7579 33.6114 35.5325 33.4254 35.3456L32.3539 34.2545L32.6364 33.5926H34.1313C34.3921 33.5972 34.6512 33.5484 34.8932 33.4492C35.0241 33.3941 35.1685 33.3178 35.3175 33.1624C35.4664 33.0071 35.6 32.7359 35.6 32.4454V30.435C35.6 30.1436 35.4646 29.8724 35.3184 29.718C35.1721 29.5636 35.0268 29.4854 34.8941 29.4312C34.6521 29.332 34.393 29.2832 34.1322 29.2878H32.6373C32.547 29.058 32.4595 28.8438 32.3557 28.6259L33.4281 27.5348C33.6141 27.3479 33.7585 27.1225 33.8515 26.8739C33.9163 26.71 33.9453 26.5337 33.9363 26.3573C33.9273 26.1431 33.8478 25.8645 33.6547 25.6678L32.2735 24.2614C32.0803 24.0647 31.8068 23.9856 31.5965 23.9746C31.4232 23.9654 31.2501 23.9949 31.0892 24.061C30.845 24.1557 30.6236 24.3027 30.4401 24.4921L29.3686 25.5842L28.7187 25.2974V23.7751C28.7232 23.5095 28.6753 23.2457 28.5778 22.9993C28.5237 22.866 28.4488 22.7189 28.2962 22.5672C28.1436 22.4155 27.8773 22.2804 27.5921 22.2804H27.4513L32.557 16.3917C32.6654 16.2639 32.7357 16.1072 32.7595 15.94C32.7834 15.7728 32.7598 15.6022 32.6916 15.4482C32.6234 15.2942 32.5134 15.1633 32.3745 15.0709C32.2357 14.9784 32.0738 14.9283 31.9079 14.9265H29.9039V10.3027C29.9045 10.1855 29.8823 10.0694 29.8386 9.9611C29.7948 9.85275 29.7304 9.75432 29.6491 9.67148C29.5677 9.58865 29.471 9.52306 29.3646 9.47851C29.2582 9.43396 29.1442 9.41134 29.0292 9.41194H23.6129C23.5847 9.41054 23.5564 9.41054 23.5281 9.41194L23.5236 9.39999ZM26.5982 29.7667C27.0321 29.7667 27.4483 29.9423 27.7551 30.2547C28.062 30.5672 28.2344 30.991 28.2344 31.4328C28.2344 31.8747 28.062 32.2985 27.7551 32.611C27.4483 32.9234 27.0321 33.099 26.5982 33.099C26.1643 33.099 25.7481 32.9234 25.4413 32.611C25.1344 32.2985 24.962 31.8747 24.962 31.4328C24.962 30.991 25.1344 30.5672 25.4413 30.2547C25.7481 29.9423 26.1643 29.7667 26.5982 29.7667Z" fill="black" stroke="#555555"/>
<path d="M52.7713 38H49.4759L54.4972 23.4545H58.4602L63.4744 38H60.179L56.5355 26.7784H56.4219L52.7713 38ZM52.5653 32.2827H60.3494V34.6832H52.5653V32.2827ZM64.1683 42.0909V27.0909H67.1513V28.9233H67.2862C67.4188 28.6297 67.6106 28.3314 67.8615 28.0284C68.1172 27.7206 68.4486 27.465 68.8558 27.2614C69.2678 27.053 69.7791 26.9489 70.3899 26.9489C71.1854 26.9489 71.9193 27.1572 72.5916 27.5739C73.264 27.9858 73.8014 28.6084 74.2038 29.4418C74.6063 30.2704 74.8075 31.3097 74.8075 32.5597C74.8075 33.7765 74.611 34.804 74.218 35.642C73.8298 36.4754 73.2995 37.1075 72.6271 37.5384C71.9595 37.9645 71.2114 38.1776 70.3828 38.1776C69.7957 38.1776 69.2962 38.0805 68.8842 37.8864C68.477 37.6922 68.1432 37.4484 67.8828 37.1548C67.6224 36.8565 67.4235 36.5559 67.2862 36.2528H67.1939V42.0909H64.1683ZM67.13 32.5455C67.13 33.1941 67.2199 33.7599 67.3999 34.2429C67.5798 34.7259 67.8402 35.1023 68.1811 35.3722C68.522 35.6373 68.9363 35.7699 69.424 35.7699C69.9164 35.7699 70.3331 35.6349 70.674 35.3651C71.0149 35.0904 71.273 34.7116 71.4482 34.2287C71.6281 33.741 71.718 33.1799 71.718 32.5455C71.718 31.9157 71.6304 31.3617 71.4553 30.8835C71.2801 30.4053 71.022 30.0312 70.6811 29.7614C70.3402 29.4915 69.9212 29.3565 69.424 29.3565C68.9316 29.3565 68.5149 29.4867 68.174 29.7472C67.8378 30.0076 67.5798 30.3769 67.3999 30.8551C67.2199 31.3333 67.13 31.8968 67.13 32.5455ZM75.8246 42.0909V27.0909H78.8075V28.9233H78.9425C79.075 28.6297 79.2668 28.3314 79.5178 28.0284C79.7734 27.7206 80.1049 27.465 80.5121 27.2614C80.924 27.053 81.4354 26.9489 82.0462 26.9489C82.8416 26.9489 83.5755 27.1572 84.2479 27.5739C84.9202 27.9858 85.4576 28.6084 85.8601 29.4418C86.2625 30.2704 86.4638 31.3097 86.4638 32.5597C86.4638 33.7765 86.2673 34.804 85.8743 35.642C85.486 36.4754 84.9557 37.1075 84.2834 37.5384C83.6158 37.9645 82.8677 38.1776 82.0391 38.1776C81.4519 38.1776 80.9524 38.0805 80.5405 37.8864C80.1333 37.6922 79.7995 37.4484 79.5391 37.1548C79.2786 36.8565 79.0798 36.5559 78.9425 36.2528H78.8501V42.0909H75.8246ZM78.7862 32.5455C78.7862 33.1941 78.8762 33.7599 79.0561 34.2429C79.236 34.7259 79.4964 35.1023 79.8374 35.3722C80.1783 35.6373 80.5926 35.7699 81.0803 35.7699C81.5727 35.7699 81.9893 35.6349 82.3303 35.3651C82.6712 35.0904 82.9292 34.7116 83.1044 34.2287C83.2843 33.741 83.3743 33.1799 83.3743 32.5455C83.3743 31.9157 83.2867 31.3617 83.1115 30.8835C82.9363 30.4053 82.6783 30.0312 82.3374 29.7614C81.9964 29.4915 81.5774 29.3565 81.0803 29.3565C80.5878 29.3565 80.1712 29.4867 79.8303 29.7472C79.4941 30.0076 79.236 30.3769 79.0561 30.8551C78.8762 31.3333 78.7862 31.8968 78.7862 32.5455ZM90.6129 23.4545V38H87.5376V23.4545H90.6129ZM92.0863 38V27.0909H94.9698V29.0156H95.0977C95.3249 28.3764 95.7037 27.8722 96.234 27.5028C96.7643 27.1335 97.3988 26.9489 98.1374 26.9489C98.8855 26.9489 99.5224 27.1359 100.048 27.5099C100.574 27.8793 100.924 28.3812 101.099 29.0156H101.213C101.435 28.3906 101.838 27.8911 102.42 27.517C103.007 27.1383 103.701 26.9489 104.501 26.9489C105.519 26.9489 106.345 27.2732 106.98 27.9219C107.619 28.5658 107.939 29.4796 107.939 30.6634V38H104.92V31.2599C104.92 30.6539 104.759 30.1993 104.437 29.8963C104.115 29.5933 103.713 29.4418 103.23 29.4418C102.681 29.4418 102.252 29.617 101.944 29.9673C101.636 30.313 101.483 30.7699 101.483 31.3381V38H98.5494V31.196C98.5494 30.661 98.3955 30.2348 98.0877 29.9176C97.7847 29.6004 97.3846 29.4418 96.8874 29.4418C96.5513 29.4418 96.2482 29.527 95.9783 29.6974C95.7132 29.8632 95.5025 30.0975 95.3462 30.4006C95.19 30.6989 95.1119 31.0492 95.1119 31.4517V38H92.0863ZM112.439 38.206C111.743 38.206 111.123 38.0852 110.578 37.8438C110.034 37.5975 109.603 37.2353 109.286 36.7571C108.973 36.2741 108.817 35.6728 108.817 34.9531C108.817 34.3471 108.928 33.8381 109.151 33.4261C109.373 33.0142 109.676 32.6828 110.06 32.4318C110.444 32.1809 110.879 31.9915 111.367 31.8636C111.859 31.7358 112.375 31.6458 112.915 31.5938C113.55 31.5275 114.061 31.4659 114.449 31.4091C114.837 31.3475 115.119 31.2576 115.294 31.1392C115.47 31.0208 115.557 30.8456 115.557 30.6136V30.571C115.557 30.1212 115.415 29.7732 115.131 29.527C114.852 29.2808 114.454 29.1577 113.938 29.1577C113.393 29.1577 112.96 29.2784 112.638 29.5199C112.316 29.7566 112.103 30.0549 111.999 30.4148L109.201 30.1875C109.343 29.5246 109.622 28.9517 110.039 28.4688C110.455 27.9811 110.993 27.607 111.651 27.3466C112.314 27.0814 113.081 26.9489 113.952 26.9489C114.558 26.9489 115.138 27.0199 115.692 27.1619C116.251 27.304 116.746 27.5241 117.176 27.8224C117.612 28.1207 117.955 28.5043 118.206 28.973C118.457 29.437 118.583 29.9934 118.583 30.642V38H115.713V36.4872H115.628C115.453 36.8281 115.219 37.1288 114.925 37.3892C114.632 37.6449 114.279 37.8461 113.867 37.9929C113.455 38.1349 112.979 38.206 112.439 38.206ZM113.306 36.1179C113.751 36.1179 114.144 36.0303 114.485 35.8551C114.826 35.6752 115.093 35.4337 115.287 35.1307C115.481 34.8277 115.578 34.4844 115.578 34.1009V32.9432C115.484 33.0047 115.354 33.0616 115.188 33.1136C115.027 33.161 114.845 33.206 114.641 33.2486C114.437 33.2865 114.234 33.322 114.03 33.3551C113.827 33.3835 113.642 33.4096 113.476 33.4332C113.121 33.4853 112.811 33.5682 112.546 33.6818C112.281 33.7955 112.075 33.9493 111.928 34.1435C111.781 34.3329 111.708 34.5696 111.708 34.8537C111.708 35.2656 111.857 35.5805 112.155 35.7983C112.458 36.0114 112.842 36.1179 113.306 36.1179ZM124.845 42.3182C123.865 42.3182 123.024 42.1832 122.324 41.9134C121.627 41.6482 121.074 41.286 120.662 40.8267C120.25 40.3674 119.982 39.8513 119.859 39.2784L122.657 38.902C122.743 39.1198 122.877 39.3234 123.062 39.5128C123.247 39.7022 123.491 39.8537 123.794 39.9673C124.101 40.0857 124.475 40.1449 124.916 40.1449C125.574 40.1449 126.116 39.9839 126.542 39.6619C126.973 39.3447 127.189 38.812 127.189 38.0639V36.0682H127.061C126.928 36.3712 126.729 36.6577 126.464 36.9276C126.199 37.1974 125.858 37.4176 125.441 37.5881C125.025 37.7585 124.528 37.8438 123.95 37.8438C123.131 37.8438 122.385 37.6544 121.713 37.2756C121.045 36.892 120.512 36.3073 120.115 35.5213C119.722 34.7306 119.525 33.7315 119.525 32.5241C119.525 31.2884 119.726 30.2562 120.129 29.4276C120.531 28.599 121.066 27.9787 121.734 27.5668C122.406 27.1548 123.143 26.9489 123.943 26.9489C124.554 26.9489 125.065 27.053 125.477 27.2614C125.889 27.465 126.22 27.7206 126.471 28.0284C126.727 28.3314 126.923 28.6297 127.061 28.9233H127.174V27.0909H130.179V38.1065C130.179 39.0346 129.951 39.8111 129.497 40.4361C129.042 41.0611 128.413 41.5298 127.608 41.8423C126.807 42.1596 125.886 42.3182 124.845 42.3182ZM124.909 35.571C125.396 35.571 125.808 35.4503 126.145 35.2088C126.485 34.9626 126.746 34.6122 126.926 34.1577C127.11 33.6984 127.203 33.1491 127.203 32.5099C127.203 31.8707 127.113 31.3168 126.933 30.848C126.753 30.3745 126.493 30.0076 126.152 29.7472C125.811 29.4867 125.396 29.3565 124.909 29.3565C124.412 29.3565 123.993 29.4915 123.652 29.7614C123.311 30.0265 123.053 30.3958 122.877 30.8693C122.702 31.3428 122.615 31.8897 122.615 32.5099C122.615 33.1397 122.702 33.6842 122.877 34.1435C123.057 34.598 123.315 34.9508 123.652 35.2017C123.993 35.4479 124.412 35.571 124.909 35.571ZM136.558 38.2131C135.436 38.2131 134.47 37.9858 133.66 37.5312C132.855 37.072 132.235 36.4233 131.799 35.5852C131.364 34.7424 131.146 33.7457 131.146 32.5952C131.146 31.473 131.364 30.4882 131.799 29.6406C132.235 28.7931 132.848 28.1326 133.639 27.6591C134.434 27.1856 135.367 26.9489 136.437 26.9489C137.157 26.9489 137.827 27.0649 138.447 27.2969C139.072 27.5241 139.617 27.8674 140.081 28.3267C140.549 28.786 140.914 29.3636 141.174 30.0597C141.435 30.7509 141.565 31.5606 141.565 32.4886V33.3196H132.353V31.4446H138.717C138.717 31.009 138.622 30.6231 138.433 30.2869C138.243 29.9508 137.981 29.688 137.645 29.4986C137.313 29.3045 136.927 29.2074 136.487 29.2074C136.028 29.2074 135.62 29.3139 135.265 29.527C134.915 29.7353 134.64 30.017 134.441 30.3722C134.243 30.7225 134.141 31.1132 134.136 31.544V33.3267C134.136 33.8665 134.235 34.3329 134.434 34.7259C134.638 35.1188 134.924 35.4219 135.294 35.6349C135.663 35.848 136.101 35.9545 136.608 35.9545C136.944 35.9545 137.252 35.9072 137.531 35.8125C137.81 35.7178 138.049 35.5758 138.248 35.3864C138.447 35.197 138.599 34.965 138.703 34.6903L141.501 34.875C141.359 35.5473 141.068 36.1345 140.627 36.6364C140.192 37.1335 139.628 37.5218 138.937 37.8011C138.251 38.0758 137.458 38.2131 136.558 38.2131Z" fill="white"/>
<path d="M52.125 17H49.8807V9.72727H52.2244C52.9299 9.72727 53.5336 9.87287 54.0355 10.1641C54.5374 10.4529 54.9221 10.8684 55.1896 11.4105C55.4571 11.9503 55.5909 12.5966 55.5909 13.3494C55.5909 14.107 55.456 14.7592 55.1861 15.3061C54.9162 15.8506 54.5232 16.2696 54.0071 16.5632C53.491 16.8544 52.8636 17 52.125 17ZM50.7614 16.2188H52.0682C52.6695 16.2188 53.1679 16.1027 53.5632 15.8707C53.9586 15.6387 54.2533 15.3085 54.4474 14.88C54.6416 14.4515 54.7386 13.9413 54.7386 13.3494C54.7386 12.7623 54.6428 12.2569 54.451 11.8331C54.2592 11.407 53.9728 11.0803 53.5916 10.853C53.2105 10.6233 52.7358 10.5085 52.1676 10.5085H50.7614V16.2188ZM59.1705 17.1136C58.678 17.1136 58.246 16.9964 57.8743 16.7621C57.505 16.5277 57.2161 16.1998 57.0078 15.7784C56.8018 15.357 56.6989 14.8646 56.6989 14.3011C56.6989 13.733 56.8018 13.237 57.0078 12.8132C57.2161 12.3894 57.505 12.0604 57.8743 11.826C58.246 11.5916 58.678 11.4744 59.1705 11.4744C59.6629 11.4744 60.0938 11.5916 60.4631 11.826C60.8348 12.0604 61.1236 12.3894 61.3295 12.8132C61.5379 13.237 61.642 13.733 61.642 14.3011C61.642 14.8646 61.5379 15.357 61.3295 15.7784C61.1236 16.1998 60.8348 16.5277 60.4631 16.7621C60.0938 16.9964 59.6629 17.1136 59.1705 17.1136ZM59.1705 16.3608C59.5445 16.3608 59.8523 16.2649 60.0938 16.0732C60.3352 15.8814 60.514 15.6293 60.63 15.3168C60.746 15.0043 60.804 14.6657 60.804 14.3011C60.804 13.9366 60.746 13.5968 60.63 13.282C60.514 12.9671 60.3352 12.7126 60.0938 12.5185C59.8523 12.3243 59.5445 12.2273 59.1705 12.2273C58.7964 12.2273 58.4886 12.3243 58.2472 12.5185C58.0057 12.7126 57.8269 12.9671 57.7109 13.282C57.5949 13.5968 57.5369 13.9366 57.5369 14.3011C57.5369 14.6657 57.5949 15.0043 57.7109 15.3168C57.8269 15.6293 58.0057 15.8814 58.2472 16.0732C58.4886 16.2649 58.7964 16.3608 59.1705 16.3608ZM63.9716 17L62.3097 11.5455H63.1903L64.3693 15.7216H64.4261L65.5909 11.5455H66.4858L67.6364 15.7074H67.6932L68.8722 11.5455H69.7528L68.0909 17H67.267L66.0739 12.8097H65.9886L64.7955 17H63.9716ZM71.6989 13.7188V17H70.8608V11.5455H71.6705V12.3977H71.7415C71.8693 12.1207 72.0634 11.8982 72.3239 11.7301C72.5843 11.5597 72.9205 11.4744 73.3324 11.4744C73.7017 11.4744 74.0249 11.5502 74.3018 11.7017C74.5788 11.8509 74.7943 12.0781 74.9482 12.3835C75.102 12.6866 75.179 13.0701 75.179 13.5341V17H74.3409V13.5909C74.3409 13.1624 74.2296 12.8286 74.0071 12.5895C73.7846 12.348 73.4792 12.2273 73.0909 12.2273C72.8234 12.2273 72.5843 12.2853 72.3736 12.4013C72.1652 12.5173 72.0007 12.6866 71.88 12.9091C71.7592 13.1316 71.6989 13.4015 71.6989 13.7188ZM77.5485 9.72727V17H76.7104V9.72727H77.5485ZM81.2994 17.1136C80.8069 17.1136 80.3749 16.9964 80.0032 16.7621C79.6339 16.5277 79.3451 16.1998 79.1367 15.7784C78.9308 15.357 78.8278 14.8646 78.8278 14.3011C78.8278 13.733 78.9308 13.237 79.1367 12.8132C79.3451 12.3894 79.6339 12.0604 80.0032 11.826C80.3749 11.5916 80.8069 11.4744 81.2994 11.4744C81.7918 11.4744 82.2227 11.5916 82.592 11.826C82.9637 12.0604 83.2525 12.3894 83.4585 12.8132C83.6668 13.237 83.771 13.733 83.771 14.3011C83.771 14.8646 83.6668 15.357 83.4585 15.7784C83.2525 16.1998 82.9637 16.5277 82.592 16.7621C82.2227 16.9964 81.7918 17.1136 81.2994 17.1136ZM81.2994 16.3608C81.6734 16.3608 81.9812 16.2649 82.2227 16.0732C82.4641 15.8814 82.6429 15.6293 82.7589 15.3168C82.8749 15.0043 82.9329 14.6657 82.9329 14.3011C82.9329 13.9366 82.8749 13.5968 82.7589 13.282C82.6429 12.9671 82.4641 12.7126 82.2227 12.5185C81.9812 12.3243 81.6734 12.2273 81.2994 12.2273C80.9253 12.2273 80.6175 12.3243 80.3761 12.5185C80.1346 12.7126 79.9558 12.9671 79.8398 13.282C79.7238 13.5968 79.6658 13.9366 79.6658 14.3011C79.6658 14.6657 79.7238 15.0043 79.8398 15.3168C79.9558 15.6293 80.1346 15.8814 80.3761 16.0732C80.6175 16.2649 80.9253 16.3608 81.2994 16.3608ZM86.6554 17.1278C86.3097 17.1278 85.996 17.0627 85.7143 16.9325C85.4326 16.8 85.2089 16.6094 85.0431 16.3608C84.8774 16.1098 84.7946 15.8068 84.7946 15.4517C84.7946 15.1392 84.8561 14.8859 84.9792 14.6918C85.1023 14.4953 85.2669 14.3414 85.4728 14.2301C85.6788 14.1188 85.9061 14.036 86.1547 13.9815C86.4056 13.9247 86.6577 13.8797 86.911 13.8466C87.2425 13.804 87.5112 13.772 87.7172 13.7507C87.9255 13.727 88.077 13.688 88.1717 13.6335C88.2688 13.5791 88.3173 13.4844 88.3173 13.3494V13.321C88.3173 12.9706 88.2214 12.6984 88.0297 12.5043C87.8403 12.3101 87.5526 12.2131 87.1667 12.2131C86.7666 12.2131 86.4529 12.3007 86.2257 12.4759C85.9984 12.651 85.8386 12.8381 85.7463 13.0369L84.9508 12.7528C85.0929 12.4214 85.2823 12.1634 85.519 11.9787C85.7581 11.7917 86.0185 11.6615 86.3002 11.5881C86.5843 11.5123 86.8637 11.4744 87.1383 11.4744C87.3135 11.4744 87.5147 11.4957 87.742 11.5384C87.9717 11.5786 88.193 11.6626 88.4061 11.7905C88.6215 11.9183 88.8002 12.1113 88.9423 12.3693C89.0843 12.6274 89.1554 12.973 89.1554 13.4062V17H88.3173V16.2614H88.2747C88.2179 16.3797 88.1232 16.5064 87.9906 16.6413C87.858 16.7763 87.6816 16.8911 87.4615 16.9858C87.2413 17.0805 86.9726 17.1278 86.6554 17.1278ZM86.7832 16.375C87.1146 16.375 87.394 16.3099 87.6213 16.1797C87.8509 16.0495 88.0237 15.8814 88.1397 15.6754C88.2581 15.4695 88.3173 15.2528 88.3173 15.0256V14.2585C88.2818 14.3011 88.2037 14.3402 88.0829 14.3757C87.9645 14.4089 87.8272 14.4384 87.671 14.4645C87.5171 14.4882 87.3668 14.5095 87.22 14.5284C87.0756 14.545 86.9584 14.5592 86.8684 14.571C86.6506 14.5994 86.447 14.6456 86.2576 14.7095C86.0706 14.7711 85.9191 14.8646 85.8031 14.9901C85.6895 15.1132 85.6326 15.2812 85.6326 15.4943C85.6326 15.7855 85.7404 16.0057 85.9558 16.1548C86.1736 16.3016 86.4494 16.375 86.7832 16.375ZM92.7447 17.1136C92.2901 17.1136 91.8888 16.9988 91.5408 16.7692C91.1928 16.5372 90.9206 16.2105 90.7241 15.7891C90.5276 15.3653 90.4293 14.8646 90.4293 14.2869C90.4293 13.714 90.5276 13.2169 90.7241 12.7955C90.9206 12.3741 91.194 12.0485 91.5444 11.8189C91.8948 11.5893 92.2996 11.4744 92.7589 11.4744C93.114 11.4744 93.3945 11.5336 93.6005 11.652C93.8088 11.768 93.9674 11.9006 94.0763 12.0497C94.1876 12.1965 94.274 12.3172 94.3356 12.4119H94.4066V9.72727H95.2447V17H94.435V16.1619H94.3356C94.274 16.2614 94.1864 16.3868 94.0728 16.5384C93.9592 16.6875 93.797 16.8213 93.5863 16.9396C93.3756 17.0556 93.0951 17.1136 92.7447 17.1136ZM92.8583 16.3608C93.1945 16.3608 93.4786 16.2732 93.7106 16.098C93.9426 15.9205 94.119 15.6754 94.2397 15.3629C94.3604 15.0481 94.4208 14.6847 94.4208 14.2727C94.4208 13.8655 94.3616 13.5092 94.2433 13.2038C94.1249 12.8961 93.9497 12.657 93.7177 12.4865C93.4857 12.3137 93.1992 12.2273 92.8583 12.2273C92.5032 12.2273 92.2073 12.3184 91.9705 12.5007C91.7362 12.6806 91.5598 12.9257 91.4414 13.2358C91.3254 13.5436 91.2674 13.8892 91.2674 14.2727C91.2674 14.661 91.3266 15.0137 91.445 15.331C91.5657 15.6458 91.7433 15.8968 91.9776 16.0838C92.2144 16.2685 92.5079 16.3608 92.8583 16.3608ZM101.314 17.1278C100.968 17.1278 100.654 17.0627 100.373 16.9325C100.091 16.8 99.8671 16.6094 99.7013 16.3608C99.5356 16.1098 99.4528 15.8068 99.4528 15.4517C99.4528 15.1392 99.5143 14.8859 99.6374 14.6918C99.7605 14.4953 99.9251 14.3414 100.131 14.2301C100.337 14.1188 100.564 14.036 100.813 13.9815C101.064 13.9247 101.316 13.8797 101.569 13.8466C101.901 13.804 102.169 13.772 102.375 13.7507C102.584 13.727 102.735 13.688 102.83 13.6335C102.927 13.5791 102.975 13.4844 102.975 13.3494V13.321C102.975 12.9706 102.88 12.6984 102.688 12.5043C102.498 12.3101 102.211 12.2131 101.825 12.2131C101.425 12.2131 101.111 12.3007 100.884 12.4759C100.657 12.651 100.497 12.8381 100.404 13.0369L99.609 12.7528C99.7511 12.4214 99.9405 12.1634 100.177 11.9787C100.416 11.7917 100.677 11.6615 100.958 11.5881C101.243 11.5123 101.522 11.4744 101.797 11.4744C101.972 11.4744 102.173 11.4957 102.4 11.5384C102.63 11.5786 102.851 11.6626 103.064 11.7905C103.28 11.9183 103.458 12.1113 103.6 12.3693C103.743 12.6274 103.814 12.973 103.814 13.4062V17H102.975V16.2614H102.933C102.876 16.3797 102.781 16.5064 102.649 16.6413C102.516 16.7763 102.34 16.8911 102.12 16.9858C101.9 17.0805 101.631 17.1278 101.314 17.1278ZM101.441 16.375C101.773 16.375 102.052 16.3099 102.279 16.1797C102.509 16.0495 102.682 15.8814 102.798 15.6754C102.916 15.4695 102.975 15.2528 102.975 15.0256V14.2585C102.94 14.3011 102.862 14.3402 102.741 14.3757C102.623 14.4089 102.485 14.4384 102.329 14.4645C102.175 14.4882 102.025 14.5095 101.878 14.5284C101.734 14.545 101.617 14.5592 101.527 14.571C101.309 14.5994 101.105 14.6456 100.916 14.7095C100.729 14.7711 100.577 14.8646 100.461 14.9901C100.348 15.1132 100.291 15.2812 100.291 15.4943C100.291 15.7855 100.399 16.0057 100.614 16.1548C100.832 16.3016 101.108 16.375 101.441 16.375ZM109.207 12.767L108.454 12.9801C108.407 12.8546 108.337 12.7327 108.244 12.6143C108.155 12.4936 108.031 12.3942 107.875 12.3161C107.719 12.2379 107.519 12.1989 107.275 12.1989C106.941 12.1989 106.663 12.2758 106.441 12.4297C106.22 12.5812 106.11 12.7741 106.11 13.0085C106.11 13.2169 106.186 13.3814 106.338 13.5021C106.489 13.6229 106.726 13.7235 107.048 13.804L107.857 14.0028C108.345 14.1212 108.709 14.3023 108.948 14.5462C109.187 14.7876 109.306 15.099 109.306 15.4801C109.306 15.7926 109.216 16.072 109.036 16.3182C108.859 16.5644 108.61 16.7585 108.291 16.9006C107.971 17.0426 107.599 17.1136 107.176 17.1136C106.619 17.1136 106.159 16.9929 105.794 16.7514C105.43 16.5099 105.199 16.1572 105.102 15.6932L105.897 15.4943C105.973 15.7879 106.116 16.008 106.327 16.1548C106.54 16.3016 106.818 16.375 107.161 16.375C107.552 16.375 107.862 16.2921 108.092 16.1264C108.324 15.9583 108.44 15.7571 108.44 15.5227C108.44 15.3333 108.374 15.1747 108.241 15.0469C108.108 14.9167 107.905 14.8196 107.63 14.7557L106.721 14.5426C106.222 14.4242 105.855 14.2408 105.62 13.9922C105.388 13.7412 105.272 13.4276 105.272 13.0511C105.272 12.7434 105.359 12.4711 105.531 12.2344C105.707 11.9976 105.945 11.8118 106.245 11.6768C106.548 11.5419 106.892 11.4744 107.275 11.4744C107.815 11.4744 108.239 11.5928 108.546 11.8295C108.856 12.0663 109.077 12.3788 109.207 12.767ZM114.985 17.1278C114.64 17.1278 114.326 17.0627 114.044 16.9325C113.763 16.8 113.539 16.6094 113.373 16.3608C113.208 16.1098 113.125 15.8068 113.125 15.4517C113.125 15.1392 113.186 14.8859 113.309 14.6918C113.432 14.4953 113.597 14.3414 113.803 14.2301C114.009 14.1188 114.236 14.036 114.485 13.9815C114.736 13.9247 114.988 13.8797 115.241 13.8466C115.573 13.804 115.841 13.772 116.047 13.7507C116.256 13.727 116.407 13.688 116.502 13.6335C116.599 13.5791 116.647 13.4844 116.647 13.3494V13.321C116.647 12.9706 116.551 12.6984 116.36 12.5043C116.17 12.3101 115.883 12.2131 115.497 12.2131C115.097 12.2131 114.783 12.3007 114.556 12.4759C114.328 12.651 114.169 12.8381 114.076 13.0369L113.281 12.7528C113.423 12.4214 113.612 12.1634 113.849 11.9787C114.088 11.7917 114.349 11.6615 114.63 11.5881C114.914 11.5123 115.194 11.4744 115.468 11.4744C115.644 11.4744 115.845 11.4957 116.072 11.5384C116.302 11.5786 116.523 11.6626 116.736 11.7905C116.952 11.9183 117.13 12.1113 117.272 12.3693C117.414 12.6274 117.485 12.973 117.485 13.4062V17H116.647V16.2614H116.605C116.548 16.3797 116.453 16.5064 116.321 16.6413C116.188 16.7763 116.012 16.8911 115.792 16.9858C115.571 17.0805 115.303 17.1278 114.985 17.1278ZM115.113 16.375C115.445 16.375 115.724 16.3099 115.951 16.1797C116.181 16.0495 116.354 15.8814 116.47 15.6754C116.588 15.4695 116.647 15.2528 116.647 15.0256V14.2585C116.612 14.3011 116.534 14.3402 116.413 14.3757C116.295 14.4089 116.157 14.4384 116.001 14.4645C115.847 14.4882 115.697 14.5095 115.55 14.5284C115.406 14.545 115.288 14.5592 115.199 14.571C114.981 14.5994 114.777 14.6456 114.588 14.7095C114.401 14.7711 114.249 14.8646 114.133 14.9901C114.02 15.1132 113.963 15.2812 113.963 15.4943C113.963 15.7855 114.07 16.0057 114.286 16.1548C114.504 16.3016 114.779 16.375 115.113 16.375ZM119.853 13.7188V17H119.015V11.5455H119.825V12.3977H119.896C120.024 12.1207 120.218 11.8982 120.478 11.7301C120.739 11.5597 121.075 11.4744 121.487 11.4744C121.856 11.4744 122.179 11.5502 122.456 11.7017C122.733 11.8509 122.949 12.0781 123.102 12.3835C123.256 12.6866 123.333 13.0701 123.333 13.5341V17H122.495V13.5909C122.495 13.1624 122.384 12.8286 122.161 12.5895C121.939 12.348 121.633 12.2273 121.245 12.2273C120.978 12.2273 120.739 12.2853 120.528 12.4013C120.32 12.5173 120.155 12.6866 120.034 12.9091C119.914 13.1316 119.853 13.4015 119.853 13.7188Z" fill="white"/>
</svg>
