<svg width="150" height="50" viewBox="0 0 150 50" fill="none" xmlns="http://www.w3.org/2000/svg">
<rect x="0.5" y="0.5" width="149" height="49" rx="4.5" fill="black" stroke="#444444"/>
<path d="M25.354 15.7219C25.354 20.5031 21.4692 24.3791 16.677 24.3791C11.8848 24.3791 8 20.5031 8 15.7219C8 10.9408 11.8848 7.06483 16.677 7.06483C21.4692 7.06483 25.354 10.9408 25.354 15.7219Z" fill="#555555"/>
<path d="M9 31C9 28.6545 10.6491 27 13 27H21C23.3509 27 25 28.6545 25 31V39C25 41.3455 23.3509 43 21 43H13C10.6491 43 9 41.3455 9 39V31Z" fill="#555555"/>
<path d="M43.3142 13.4752C45.0605 14.4812 45.0605 16.996 43.3142 18.0019L33 23.9431C31.2537 24.9491 29.0708 23.6916 29.0708 21.6798V9.79732C29.0708 7.78547 31.2537 6.52807 33 7.53399L43.3142 13.4752Z" fill="#555555"/>
<path d="M42 33C43 33 44 34 44 35C44 36 43 37 42 37H30C29.0708 37 28 36 28 35C28 34 29 33 30 33H42Z" fill="#555555"/>
<path d="M34 29C34 28 35 27 35.9939 27C37 27 38 28 38 29V41C38 42 37 43 35.9939 43C34.9879 43 34 42 34 41V29Z" fill="#555555"/>
<path d="M53.2642 38V23.4545H62.8949V25.9901H56.3395V29.456H62.2557V31.9915H56.3395V38H53.2642ZM66.9322 23.4545V38H63.9066V23.4545H66.9322ZM71.4666 38.206C70.7706 38.206 70.1503 38.0852 69.6058 37.8438C69.0613 37.5975 68.6304 37.2353 68.3132 36.7571C68.0007 36.2741 67.8445 35.6728 67.8445 34.9531C67.8445 34.3471 67.9557 33.8381 68.1783 33.4261C68.4008 33.0142 68.7038 32.6828 69.0874 32.4318C69.4709 32.1809 69.9065 31.9915 70.3942 31.8636C70.8866 31.7358 71.4027 31.6458 71.9425 31.5938C72.5769 31.5275 73.0883 31.4659 73.4766 31.4091C73.8648 31.3475 74.1465 31.2576 74.3217 31.1392C74.4969 31.0208 74.5845 30.8456 74.5845 30.6136V30.571C74.5845 30.1212 74.4425 29.7732 74.1584 29.527C73.879 29.2808 73.4813 29.1577 72.9652 29.1577C72.4207 29.1577 71.9875 29.2784 71.6655 29.5199C71.3435 29.7566 71.1304 30.0549 71.0263 30.4148L68.228 30.1875C68.37 29.5246 68.6494 28.9517 69.0661 28.4688C69.4827 27.9811 70.0201 27.607 70.6783 27.3466C71.3411 27.0814 72.1082 26.9489 72.9794 26.9489C73.5855 26.9489 74.1655 27.0199 74.7195 27.1619C75.2782 27.304 75.773 27.5241 76.2038 27.8224C76.6394 28.1207 76.9827 28.5043 77.2337 28.973C77.4846 29.437 77.6101 29.9934 77.6101 30.642V38H74.7408V36.4872H74.6555C74.4804 36.8281 74.246 37.1288 73.9524 37.3892C73.6589 37.6449 73.3061 37.8461 72.8942 37.9929C72.4822 38.1349 72.0064 38.206 71.4666 38.206ZM72.3331 36.1179C72.7782 36.1179 73.1712 36.0303 73.5121 35.8551C73.853 35.6752 74.1205 35.4337 74.3146 35.1307C74.5088 34.8277 74.6058 34.4844 74.6058 34.1009V32.9432C74.5111 33.0047 74.3809 33.0616 74.2152 33.1136C74.0542 33.161 73.8719 33.206 73.6683 33.2486C73.4647 33.2865 73.2611 33.322 73.0575 33.3551C72.8539 33.3835 72.6693 33.4096 72.5036 33.4332C72.1484 33.4853 71.8383 33.5682 71.5732 33.6818C71.308 33.7955 71.102 33.9493 70.9553 34.1435C70.8085 34.3329 70.7351 34.5696 70.7351 34.8537C70.7351 35.2656 70.8842 35.5805 71.1825 35.7983C71.4856 36.0114 71.8691 36.1179 72.3331 36.1179ZM84.7599 27.0909V29.3636H78.1903V27.0909H84.7599ZM79.6818 24.4773H82.7074V34.6477C82.7074 34.9271 82.75 35.1449 82.8352 35.3011C82.9205 35.4527 83.0388 35.5592 83.1903 35.6207C83.3466 35.6823 83.5265 35.7131 83.7301 35.7131C83.8722 35.7131 84.0142 35.7012 84.1562 35.6776C84.2983 35.6491 84.4072 35.6278 84.483 35.6136L84.9588 37.8651C84.8073 37.9124 84.5942 37.9669 84.3196 38.0284C84.045 38.0947 83.7112 38.1349 83.3182 38.1491C82.589 38.1776 81.9498 38.0805 81.4006 37.858C80.8561 37.6354 80.4323 37.2898 80.1293 36.821C79.8262 36.3523 79.6771 35.7604 79.6818 35.0455V24.4773ZM88.9908 31.6932V38H85.9652V23.4545H88.9055V29.0156H89.0334C89.2796 28.3717 89.6773 27.8674 90.2266 27.5028C90.7758 27.1335 91.4647 26.9489 92.2933 26.9489C93.0509 26.9489 93.7114 27.1146 94.2749 27.446C94.843 27.7727 95.2834 28.2438 95.5959 28.8594C95.9131 29.4702 96.0694 30.2017 96.0646 31.054V38H93.0391V31.5938C93.0438 30.9214 92.8733 30.3982 92.5277 30.0241C92.1868 29.6501 91.7086 29.4631 91.093 29.4631C90.6811 29.4631 90.3165 29.5507 89.9993 29.7259C89.6868 29.901 89.4406 30.1567 89.2607 30.4929C89.0855 30.8243 88.9955 31.2244 88.9908 31.6932ZM104.441 33.3551V27.0909H107.467V38H104.562V36.0185H104.449C104.202 36.6577 103.793 37.1714 103.22 37.5597C102.652 37.9479 101.958 38.142 101.139 38.142C100.41 38.142 99.7681 37.9763 99.2141 37.6449C98.6602 37.3134 98.2269 36.8423 97.9144 36.2315C97.6067 35.6207 97.4504 34.8892 97.4457 34.0369V27.0909H100.471V33.4972C100.476 34.1411 100.649 34.6501 100.99 35.0241C101.331 35.3982 101.788 35.5852 102.36 35.5852C102.725 35.5852 103.066 35.5024 103.383 35.3366C103.7 35.1662 103.956 34.9152 104.15 34.5838C104.349 34.2524 104.446 33.8428 104.441 33.3551ZM108.944 38V23.4545H111.969V28.9233H112.062C112.194 28.6297 112.386 28.3314 112.637 28.0284C112.893 27.7206 113.224 27.465 113.631 27.2614C114.043 27.053 114.555 26.9489 115.165 26.9489C115.961 26.9489 116.695 27.1572 117.367 27.5739C118.04 27.9858 118.577 28.6084 118.979 29.4418C119.382 30.2704 119.583 31.3097 119.583 32.5597C119.583 33.7765 119.387 34.804 118.994 35.642C118.605 36.4754 118.075 37.1075 117.403 37.5384C116.735 37.9645 115.987 38.1776 115.158 38.1776C114.571 38.1776 114.072 38.0805 113.66 37.8864C113.253 37.6922 112.919 37.4484 112.658 37.1548C112.398 36.8565 112.199 36.5559 112.062 36.2528H111.927V38H108.944ZM111.906 32.5455C111.906 33.1941 111.996 33.7599 112.175 34.2429C112.355 34.7259 112.616 35.1023 112.957 35.3722C113.298 35.6373 113.712 35.7699 114.2 35.7699C114.692 35.7699 115.109 35.6349 115.45 35.3651C115.79 35.0904 116.049 34.7116 116.224 34.2287C116.404 33.741 116.494 33.1799 116.494 32.5455C116.494 31.9157 116.406 31.3617 116.231 30.8835C116.056 30.4053 115.798 30.0312 115.457 29.7614C115.116 29.4915 114.697 29.3565 114.2 29.3565C113.707 29.3565 113.29 29.4867 112.95 29.7472C112.613 30.0076 112.355 30.3769 112.175 30.8551C111.996 31.3333 111.906 31.8968 111.906 32.5455Z" fill="white"/>
<path d="M57.8523 12C57.7741 11.7609 57.6712 11.5466 57.5433 11.3572C57.4179 11.1655 57.2675 11.0021 57.0923 10.8672C56.9195 10.7322 56.723 10.6293 56.5028 10.5582C56.2827 10.4872 56.0412 10.4517 55.7784 10.4517C55.3475 10.4517 54.9557 10.563 54.603 10.7855C54.2502 11.008 53.9697 11.3359 53.7614 11.7692C53.553 12.2024 53.4489 12.7339 53.4489 13.3636C53.4489 13.9934 53.5542 14.5249 53.7649 14.9581C53.9756 15.3913 54.2609 15.7192 54.6207 15.9418C54.9806 16.1643 55.3854 16.2756 55.8352 16.2756C56.2519 16.2756 56.6188 16.1868 56.9361 16.0092C57.2557 15.8293 57.5043 15.576 57.6818 15.2493C57.8617 14.9202 57.9517 14.5331 57.9517 14.0881L58.2216 14.1449H56.0341V13.3636H58.804V14.1449C58.804 14.7438 58.6761 15.2647 58.4205 15.7074C58.1671 16.1501 57.8168 16.4934 57.3693 16.7372C56.9242 16.9787 56.4129 17.0994 55.8352 17.0994C55.1913 17.0994 54.6255 16.9479 54.1378 16.6449C53.6525 16.3419 53.2737 15.911 53.0014 15.3523C52.7315 14.7936 52.5966 14.1307 52.5966 13.3636C52.5966 12.7884 52.6735 12.2711 52.8274 11.8118C52.9837 11.3501 53.2038 10.9571 53.4879 10.6328C53.772 10.3085 54.1082 10.0599 54.4964 9.88707C54.8847 9.71425 55.312 9.62784 55.7784 9.62784C56.1619 9.62784 56.5194 9.68584 56.8509 9.80185C57.1847 9.91548 57.4818 10.0777 57.7422 10.2884C58.005 10.4967 58.224 10.7464 58.3991 11.0376C58.5743 11.3265 58.6951 11.6473 58.7614 12H57.8523ZM62.4856 17.1136C61.96 17.1136 61.5067 16.9976 61.1255 16.7656C60.7467 16.5312 60.4544 16.2045 60.2484 15.7855C60.0448 15.3641 59.943 14.8741 59.943 14.3153C59.943 13.7566 60.0448 13.2642 60.2484 12.8381C60.4544 12.4096 60.7408 12.0758 61.1078 11.8366C61.4771 11.5952 61.908 11.4744 62.4004 11.4744C62.6845 11.4744 62.965 11.5218 63.242 11.6165C63.519 11.7112 63.7711 11.8651 63.9984 12.0781C64.2257 12.2888 64.4068 12.5682 64.5417 12.9162C64.6767 13.2642 64.7441 13.6927 64.7441 14.2017V14.5568H60.5396V13.8324H63.8919C63.8919 13.5246 63.8303 13.25 63.7072 13.0085C63.5865 12.767 63.4136 12.5765 63.1887 12.4368C62.9662 12.2971 62.7034 12.2273 62.4004 12.2273C62.0666 12.2273 61.7778 12.3101 61.5339 12.4759C61.2924 12.6392 61.1066 12.8523 60.9764 13.1151C60.8462 13.3778 60.7811 13.6596 60.7811 13.9602V14.4432C60.7811 14.8551 60.8521 15.2043 60.9941 15.4908C61.1386 15.7749 61.3386 15.9915 61.5943 16.1406C61.85 16.2874 62.1471 16.3608 62.4856 16.3608C62.7058 16.3608 62.9047 16.33 63.0822 16.2685C63.2621 16.2045 63.4172 16.1098 63.5474 15.9844C63.6776 15.8565 63.7782 15.6979 63.8493 15.5085L64.6589 15.7358C64.5737 16.0104 64.4305 16.2519 64.2292 16.4602C64.028 16.6662 63.7794 16.8272 63.4835 16.9432C63.1876 17.0568 62.8549 17.1136 62.4856 17.1136ZM68.3912 11.5455V12.2557H65.5645V11.5455H68.3912ZM66.3883 10.2386H67.2264V15.4375C67.2264 15.6742 67.2607 15.8518 67.3294 15.9702C67.4004 16.0862 67.4904 16.1643 67.5993 16.2045C67.7105 16.2424 67.8277 16.2614 67.9508 16.2614C68.0431 16.2614 68.1189 16.2566 68.1781 16.2472C68.2373 16.2353 68.2846 16.2259 68.3201 16.2188L68.4906 16.9716C68.4338 16.9929 68.3545 17.0142 68.2527 17.0355C68.1509 17.0592 68.0218 17.071 67.8656 17.071C67.6288 17.071 67.3968 17.0201 67.1696 16.9183C66.9447 16.8165 66.7576 16.6615 66.6085 16.4531C66.4617 16.2448 66.3883 15.982 66.3883 15.6648V10.2386ZM72.4643 17V11.5455H73.3024V17H72.4643ZM72.8904 10.6364C72.7271 10.6364 72.5862 10.5807 72.4679 10.4695C72.3519 10.3582 72.2939 10.2244 72.2939 10.0682C72.2939 9.91193 72.3519 9.77817 72.4679 9.6669C72.5862 9.55563 72.7271 9.5 72.8904 9.5C73.0538 9.5 73.1935 9.55563 73.3095 9.6669C73.4279 9.77817 73.487 9.91193 73.487 10.0682C73.487 10.2244 73.4279 10.3582 73.3095 10.4695C73.1935 10.5807 73.0538 10.6364 72.8904 10.6364ZM77.2095 11.5455V12.2557H74.3828V11.5455H77.2095ZM75.2067 10.2386H76.0447V15.4375C76.0447 15.6742 76.0791 15.8518 76.1477 15.9702C76.2188 16.0862 76.3087 16.1643 76.4176 16.2045C76.5289 16.2424 76.6461 16.2614 76.7692 16.2614C76.8615 16.2614 76.9373 16.2566 76.9964 16.2472C77.0556 16.2353 77.103 16.2259 77.1385 16.2188L77.3089 16.9716C77.2521 16.9929 77.1728 17.0142 77.071 17.0355C76.9692 17.0592 76.8402 17.071 76.6839 17.071C76.4472 17.071 76.2152 17.0201 75.9879 16.9183C75.763 16.8165 75.576 16.6615 75.4268 16.4531C75.2801 16.2448 75.2067 15.982 75.2067 15.6648V10.2386ZM83.4986 17.1136C83.0062 17.1136 82.5741 16.9964 82.2024 16.7621C81.8331 16.5277 81.5443 16.1998 81.3359 15.7784C81.13 15.357 81.027 14.8646 81.027 14.3011C81.027 13.733 81.13 13.237 81.3359 12.8132C81.5443 12.3894 81.8331 12.0604 82.2024 11.826C82.5741 11.5916 83.0062 11.4744 83.4986 11.4744C83.991 11.4744 84.4219 11.5916 84.7912 11.826C85.1629 12.0604 85.4517 12.3894 85.6577 12.8132C85.866 13.237 85.9702 13.733 85.9702 14.3011C85.9702 14.8646 85.866 15.357 85.6577 15.7784C85.4517 16.1998 85.1629 16.5277 84.7912 16.7621C84.4219 16.9964 83.991 17.1136 83.4986 17.1136ZM83.4986 16.3608C83.8726 16.3608 84.1804 16.2649 84.4219 16.0732C84.6634 15.8814 84.8421 15.6293 84.9581 15.3168C85.0741 15.0043 85.1321 14.6657 85.1321 14.3011C85.1321 13.9366 85.0741 13.5968 84.9581 13.282C84.8421 12.9671 84.6634 12.7126 84.4219 12.5185C84.1804 12.3243 83.8726 12.2273 83.4986 12.2273C83.1245 12.2273 82.8168 12.3243 82.5753 12.5185C82.3338 12.7126 82.1551 12.9671 82.0391 13.282C81.9231 13.5968 81.8651 13.9366 81.8651 14.3011C81.8651 14.6657 81.9231 15.0043 82.0391 15.3168C82.1551 15.6293 82.3338 15.8814 82.5753 16.0732C82.8168 16.2649 83.1245 16.3608 83.4986 16.3608ZM88.0875 13.7188V17H87.2495V11.5455H88.0591V12.3977H88.1301C88.258 12.1207 88.4521 11.8982 88.7125 11.7301C88.973 11.5597 89.3091 11.4744 89.7211 11.4744C90.0904 11.4744 90.4135 11.5502 90.6905 11.7017C90.9675 11.8509 91.1829 12.0781 91.3368 12.3835C91.4907 12.6866 91.5676 13.0701 91.5676 13.5341V17H90.7296V13.5909C90.7296 13.1624 90.6183 12.8286 90.3958 12.5895C90.1732 12.348 89.8678 12.2273 89.4796 12.2273C89.2121 12.2273 88.973 12.2853 88.7623 12.4013C88.5539 12.5173 88.3894 12.6866 88.2686 12.9091C88.1479 13.1316 88.0875 13.4015 88.0875 13.7188Z" fill="white"/>
</svg>
